<svg width="33" height="33" viewBox="0 0 33 33" fill="none" xmlns="http://www.w3.org/2000/svg">
<path d="M11.5198 26.7815C11.2753 26.7815 11.0473 26.7206 10.8358 26.5988C10.6251 26.4761 10.4642 26.3037 10.3531 26.0815L7.75312 21.4481H9.68646L11.0198 24.1148H14.0865V22.7815H11.8198L10.4865 20.1148H7.01979L5.11979 16.7815C5.07535 16.6703 5.03668 16.5592 5.00379 16.4481C4.97001 16.337 4.95312 16.2259 4.95312 16.1148C4.95312 16.0037 4.97001 15.8926 5.00379 15.7815C5.03668 15.6703 5.07535 15.5592 5.11979 15.4481L7.01979 12.1148H10.4865L11.8198 9.44812H14.0865V8.11479H11.0198L9.68646 10.7815H7.75312L10.3531 6.14812C10.4642 5.9259 10.6251 5.75345 10.8358 5.63079C11.0473 5.50901 11.2753 5.44812 11.5198 5.44812H14.7531C15.1309 5.44812 15.4478 5.57568 15.7038 5.83079C15.9589 6.08679 16.0865 6.40368 16.0865 6.78145V12.1148H14.0865L12.7531 13.4481H16.0865V17.4481H13.1531L11.8198 14.7815H8.75312L7.41979 16.1148H11.0198L12.3531 18.7815H16.0865V25.4481C16.0865 25.8259 15.9589 26.1423 15.7038 26.3975C15.4478 26.6535 15.1309 26.7815 14.7531 26.7815H11.5198ZM18.7531 26.7815C18.3753 26.7815 18.0589 26.6535 17.8038 26.3975C17.5478 26.1423 17.4198 25.8259 17.4198 25.4481V18.7815H21.1531L22.4865 16.1148H26.0865L24.7531 14.7815H21.6865L20.3531 17.4481H17.4198V13.4481H20.7531L19.4198 12.1148H17.4198V6.78145C17.4198 6.40368 17.5478 6.08679 17.8038 5.83079C18.0589 5.57568 18.3753 5.44812 18.7531 5.44812H21.9865C22.2309 5.44812 22.4589 5.50901 22.6705 5.63079C22.8811 5.75345 23.042 5.9259 23.1531 6.14812L25.7531 10.7815H23.8198L22.4865 8.11479H19.4198V9.44812H21.6865L23.0198 12.1148H26.4865L28.3865 15.4481C28.4309 15.5592 28.4696 15.6703 28.5025 15.7815C28.5362 15.8926 28.5531 16.0037 28.5531 16.1148C28.5531 16.2259 28.5362 16.337 28.5025 16.4481C28.4696 16.5592 28.4309 16.6703 28.3865 16.7815L26.4865 20.1148H23.0198L21.6865 22.7815H19.4198V24.1148H22.4865L23.8198 21.4481H25.7531L23.1531 26.0815C23.042 26.3037 22.8811 26.4761 22.6705 26.5988C22.4589 26.7206 22.2309 26.7815 21.9865 26.7815H18.7531Z" fill="white"/>
</svg>
