<svg width="33" height="33" viewBox="0 0 33 33" fill="none" xmlns="http://www.w3.org/2000/svg">
<path d="M13.7406 2.724H19.074C19.7812 2.724 20.4595 3.00495 20.9596 3.50505C21.4597 4.00514 21.7406 4.68342 21.7406 5.39067V8.05733H27.074C27.7812 8.05733 28.4595 8.33828 28.9596 8.83838C29.4597 9.33848 29.7406 10.0168 29.7406 10.724V17.4307C29.074 16.364 28.1406 15.444 27.074 14.724V10.724H5.74064V25.3907H14.4073C14.8206 26.3907 15.4206 27.284 16.154 28.0573H5.74064C5.0334 28.0573 4.35512 27.7764 3.85502 27.2763C3.35493 26.7762 3.07397 26.0979 3.07397 25.3907V10.724C3.07397 9.244 4.26064 8.05733 5.74064 8.05733H11.074V5.39067C11.074 3.91067 12.2606 2.724 13.7406 2.724ZM19.074 8.05733V5.39067H13.7406V8.05733H19.074ZM27.4873 25.2573L31.594 29.3907L29.7406 31.244L25.5806 27.1507C24.6606 27.724 23.5673 28.0573 22.4073 28.0573C19.074 28.0573 16.4073 25.3907 16.4073 22.0573C16.4073 18.724 19.074 16.0573 22.4073 16.0573C25.7406 16.0573 28.4073 18.724 28.4073 22.0573C28.4073 23.2307 28.074 24.3373 27.4873 25.2573ZM22.4073 25.3907C23.2914 25.3907 24.1392 25.0395 24.7643 24.4144C25.3895 23.7892 25.7406 22.9414 25.7406 22.0573C25.7406 21.1733 25.3895 20.3254 24.7643 19.7003C24.1392 19.0752 23.2914 18.724 22.4073 18.724C21.5233 18.724 20.6754 19.0752 20.0503 19.7003C19.4252 20.3254 19.074 21.1733 19.074 22.0573C19.074 22.9414 19.4252 23.7892 20.0503 24.4144C20.6754 25.0395 21.5233 25.3907 22.4073 25.3907Z" fill="white"/>
</svg>
