<svg width="33" height="33" viewBox="0 0 33 33" fill="none" xmlns="http://www.w3.org/2000/svg">
<path d="M11.321 4.38525C10.6137 4.38525 9.93544 4.66621 9.43535 5.1663C8.93525 5.6664 8.6543 6.34468 8.6543 7.05192V12.3853C8.6543 13.0925 8.37335 13.7708 7.87325 14.2709C7.37315 14.771 6.69487 15.0519 5.98763 15.0519H4.6543V17.7186H5.98763C6.69487 17.7186 7.37315 17.9995 7.87325 18.4996C8.37335 18.9997 8.6543 19.678 8.6543 20.3853V25.7186C8.6543 26.4258 8.93525 27.1041 9.43535 27.6042C9.93544 28.1043 10.6137 28.3853 11.321 28.3853H13.9876V25.7186H11.321V19.0519C11.321 18.3447 11.04 17.6664 10.5399 17.1663C10.0398 16.6662 9.36154 16.3853 8.6543 16.3853C9.36154 16.3853 10.0398 16.1043 10.5399 15.6042C11.04 15.1041 11.321 14.4258 11.321 13.7186V7.05192H13.9876V4.38525M21.9876 4.38525C22.6949 4.38525 23.3732 4.66621 23.8732 5.1663C24.3733 5.6664 24.6543 6.34468 24.6543 7.05192V12.3853C24.6543 13.0925 24.9352 13.7708 25.4353 14.2709C25.9354 14.771 26.6137 15.0519 27.321 15.0519H28.6543V17.7186H27.321C26.6137 17.7186 25.9354 17.9995 25.4353 18.4996C24.9352 18.9997 24.6543 19.678 24.6543 20.3853V25.7186C24.6543 26.4258 24.3733 27.1041 23.8732 27.6042C23.3732 28.1043 22.6949 28.3853 21.9876 28.3853H19.321V25.7186H21.9876V19.0519C21.9876 18.3447 22.2686 17.6664 22.7687 17.1663C23.2688 16.6662 23.9471 16.3853 24.6543 16.3853C23.9471 16.3853 23.2688 16.1043 22.7687 15.6042C22.2686 15.1041 21.9876 14.4258 21.9876 13.7186V7.05192H19.321V4.38525H21.9876Z" fill="currentColor"/>
</svg>
