<svg width="157" height="35" viewBox="0 0 157 35" fill="none" xmlns="http://www.w3.org/2000/svg">
<g clip-path="url(#clip0_50_39)">
<path fill-rule="evenodd" clip-rule="evenodd" d="M57.0362 8.70725V11.8318C56.6449 11.8 56.2876 11.7676 55.9945 11.7676C54.1389 11.7676 52.8715 12.9597 52.8715 14.8928V17.2762H56.9695V20.4014H52.8715V33.8026H49.227V20.4014H46.0706V17.2762H49.227V14.9887C49.227 11.0265 51.7002 8.61072 55.6039 8.61072C56.1241 8.61072 56.6128 8.64311 57.0362 8.70725Z" fill="#FE666F"/>
<path fill-rule="evenodd" clip-rule="evenodd" d="M63.7021 11.0379C64.6136 11.9073 64.6136 13.3254 63.7021 14.2266C62.7913 15.0966 61.3603 15.0966 60.4489 14.2266C59.5708 13.3254 59.5708 11.9073 60.4489 11.0379C61.3603 10.1355 62.7913 10.1355 63.7021 11.0379Z" fill="#FE666F"/>
<path fill-rule="evenodd" clip-rule="evenodd" d="M60.2542 33.8021H63.8987V17.2764H60.2542V33.8021Z" fill="#FE666F"/>
<path fill-rule="evenodd" clip-rule="evenodd" d="M80.7534 18.8553C81.9567 20.0791 82.5751 21.7538 82.5751 23.8482V33.8023H78.8978V24.3315C78.8978 21.8833 77.4662 20.3369 75.2546 20.3369C72.9442 20.3369 71.3824 22.044 71.3824 24.3639V33.8023H67.7385V17.2766H71.1874V19.4669C72.1309 17.8246 73.7582 16.9863 76.0673 16.9863C77.9877 16.9863 79.5489 17.5985 80.7534 18.8553Z" fill="#FE666F"/>
<path fill-rule="evenodd" clip-rule="evenodd" d="M94.8413 30.6456V33.8667C94.028 33.995 93.214 34.0604 92.4007 34.0604C88.9845 34.0604 86.8371 32.3209 86.8704 28.7131L86.9019 20.4007H83.8115V17.2755H86.9019L86.9346 11.6704H90.6118L90.5784 17.2755H94.8086V20.4007H90.5464L90.5143 27.972C90.5143 29.8715 91.4251 30.8063 93.2794 30.8063C93.67 30.8063 94.1909 30.7415 94.8413 30.6456Z" fill="#FE666F"/>
<path fill-rule="evenodd" clip-rule="evenodd" d="M110.896 19.3379C112.556 20.9166 113.368 22.9781 113.368 25.5558C113.368 28.1336 112.556 30.195 110.896 31.7725C109.269 33.3513 107.186 34.1242 104.682 34.1242C102.143 34.1242 100.06 33.3513 98.4015 31.7725C96.7748 30.195 95.9622 28.1336 95.9622 25.5558C95.9622 22.9781 96.7748 20.9166 98.4015 19.3379C100.06 17.7604 102.143 16.9862 104.682 16.9862C107.186 16.9862 109.269 17.7604 110.896 19.3379ZM104.682 30.9996C107.642 30.9996 109.692 28.9052 109.692 25.5558C109.692 22.1728 107.642 20.079 104.682 20.079C101.719 20.079 99.6708 22.1728 99.6708 25.5558C99.6708 28.9052 101.719 30.9996 104.682 30.9996Z" fill="#FE666F"/>
<path fill-rule="evenodd" clip-rule="evenodd" d="M128.999 18.8553C130.203 20.0791 130.821 21.7538 130.821 23.8482V33.8023H127.144V24.3315C127.144 21.8833 125.712 20.3369 123.501 20.3369C121.19 20.3369 119.628 22.044 119.628 24.3639V33.8023H115.984V17.2766H119.434V19.4669C120.377 17.8246 122.004 16.9863 124.314 16.9863C126.233 16.9863 127.795 17.5985 128.999 18.8553Z" fill="#FE666F"/>
<path fill-rule="evenodd" clip-rule="evenodd" d="M137.948 11.0379C138.859 11.9073 138.859 13.3254 137.948 14.2266C137.037 15.0966 135.605 15.0966 134.694 14.2266C133.817 13.3254 133.817 11.9073 134.694 11.0379C135.605 10.1355 137.037 10.1355 137.948 11.0379ZM134.499 33.8026H138.143V17.2762H134.499V33.8026Z" fill="#FE666F"/>
<path fill-rule="evenodd" clip-rule="evenodd" d="M156.787 23.2357L153.208 23.5589C152.948 21.3997 151.321 20.0787 149.108 20.0787C146.343 20.0787 144.455 22.1091 144.455 25.5556C144.455 28.9379 146.376 31.0006 149.108 31.0006C151.353 31.0006 152.883 29.7756 153.24 27.7142L156.82 28.0361C156.168 31.7729 153.175 34.1245 149.108 34.1245C146.668 34.1245 144.651 33.3523 143.089 31.837C141.527 30.2906 140.746 28.1968 140.746 25.5556C140.746 22.8813 141.527 20.7881 143.056 19.2741C144.618 17.7595 146.636 16.986 149.108 16.986C153.175 16.986 156.234 19.37 156.787 23.2357Z" fill="#FE666F"/>
<path fill-rule="evenodd" clip-rule="evenodd" d="M17.8153 29.6062C17.8153 27.2888 15.918 25.4103 13.5768 25.4103C11.2357 25.4103 9.33838 27.2888 9.33838 29.6062C9.33838 31.9235 11.2357 33.8021 13.5768 33.8021C15.918 33.8021 17.8153 31.9235 17.8153 29.6062Z" fill="#FE666F"/>
<path fill-rule="evenodd" clip-rule="evenodd" d="M22.0535 12.8203C20.6513 12.8203 19.5904 13.1588 18.5629 13.5545C17.0318 14.2016 15.3469 14.5598 13.5766 14.5598C11.8107 14.5598 10.129 14.2035 8.60047 13.5589C7.57036 13.1613 6.5069 12.8203 5.10028 12.8203C2.75976 12.8203 0.861816 14.6995 0.861816 17.0168C0.861816 19.3348 2.75976 21.2134 5.10028 21.2134C6.5069 21.2134 7.57036 20.873 8.60047 20.4754C10.129 19.8308 11.8107 19.4739 13.5766 19.4739C15.3469 19.4739 17.0318 19.8327 18.5629 20.4799C19.5904 20.8755 20.6513 21.2134 22.0535 21.2134C24.394 21.2134 26.2919 19.3348 26.2919 17.0168C26.2919 14.6995 24.394 12.8203 22.0535 12.8203Z" fill="#FE666F"/>
<path fill-rule="evenodd" clip-rule="evenodd" d="M30.5303 0.231201C29.1281 0.231201 28.0673 0.569058 27.0397 0.96534C25.5087 1.61247 23.8237 1.97065 22.0534 1.97065C20.2875 1.97065 18.6058 1.61374 17.0773 0.969786C16.0472 0.572233 14.9837 0.231201 13.5764 0.231201C11.2359 0.231201 9.33862 2.10973 9.33862 4.42773C9.33862 6.74573 11.2359 8.62426 13.5764 8.62426C14.9837 8.62426 16.0472 8.28323 17.0773 7.88568C18.6058 7.24172 20.2875 6.88481 22.0534 6.88481C23.8237 6.88481 25.5087 7.24362 27.0397 7.89076C28.0673 8.28641 29.1281 8.62426 30.5303 8.62426C32.8708 8.62426 34.7687 6.74573 34.7687 4.42773C34.7687 2.10973 32.8708 0.231201 30.5303 0.231201Z" fill="#FE666F"/>
</g>
<defs>
<clipPath id="clip0_50_39">
<rect width="156" height="34" fill="white" transform="translate(0.861816 0.220581)"/>
</clipPath>
</defs>
</svg>
