<svg width="123" height="49" viewBox="0 0 123 49" fill="none" xmlns="http://www.w3.org/2000/svg">
<g clip-path="url(#clip0_50_26)">
<path fill-rule="evenodd" clip-rule="evenodd" d="M122.862 45.0206V48.2206H106.809V45.0206H122.862ZM84.3355 45.0206V48.2206H68.2829V45.0206H84.3355ZM96.8601 45.0206L95.5687 48.2206L94.2943 45.0206H96.8601ZM60.8987 45.0206C58.5955 47.0078 55.5576 48.2206 52.166 48.2206H26.546V45.0206H60.8987ZM23.3355 45.0206V48.2206H0.861816V45.0206H23.3355ZM84.3355 38.6206V41.8206H68.2829V38.6206H84.3355ZM99.3702 38.6206L98.1205 41.8206H93.0375L91.7784 38.6206H99.3702ZM64.1092 38.6206C63.8194 39.7583 63.3564 40.8327 62.7608 41.8206H26.546V38.6206H64.1092ZM23.3355 38.6206V41.8206H0.861816V38.6206H23.3355ZM122.862 38.6206V41.8206H106.809V38.6206H122.862ZM116.441 32.2206V35.4206H106.809V32.2206H116.441ZM84.3355 32.2206V35.4206H74.7039V32.2206H84.3355ZM101.889 32.2206L100.628 35.4206H90.5179L89.2466 32.2206H101.889ZM63.6597 32.2206C63.9482 33.2408 64.1092 34.3125 64.1092 35.4206H52.2302V32.2206H63.6597ZM42.5987 32.2206V35.4206H32.9671V32.2206H42.5987ZM16.9144 32.2206V35.4206H7.28287V32.2206H16.9144ZM116.441 25.8206V29.0206H106.809V25.8206H116.441ZM84.3355 25.8206V29.0206H74.7039V25.8206H84.3355ZM104.405 25.8206L103.149 29.0206H87.9634L86.7179 25.8206H104.405ZM59.7108 25.8206C60.818 26.7239 61.7715 27.8063 62.5039 29.0206H32.9671V25.8206H59.7108ZM16.9144 25.8206V29.0206H7.28287V25.8206H16.9144ZM94.673 19.4206L95.5723 22.0071L96.471 19.4206H116.441V22.6206H106.809V19.6801L105.718 22.6206H85.395L84.3355 19.6798V22.6206H74.7039V19.4206H94.673ZM16.9144 19.4206V22.6206H7.28287V19.4206H16.9144ZM62.5039 19.4206C61.7715 20.6348 60.818 21.717 59.7108 22.6206H32.9671V19.4206H62.5039ZM116.441 13.0206V16.2206H97.5849L98.7214 13.0206H116.441ZM92.434 13.0206L93.5705 16.2206H74.7039V13.0206H92.434ZM64.1092 13.0206C64.1092 14.1284 63.9482 15.2001 63.6597 16.2206H52.2302V13.0206H64.1092ZM42.5987 13.0206V16.2206H32.9671V13.0206H42.5987ZM16.9144 13.0206V16.2206H7.28287V13.0206H16.9144ZM90.2109 6.62058L91.3267 9.82058H68.2832L68.2829 6.62058H90.2109ZM122.862 6.62058V9.82058H99.8061L100.966 6.62058H122.862ZM62.7608 6.62058C63.3564 7.60851 63.8194 8.68284 64.1092 9.82058H26.546V6.62058H62.7608ZM23.3355 6.62058V9.82058H0.861816V6.62058H23.3355ZM87.9565 0.220581L89.0936 3.42058H68.2832L68.2829 0.220581H87.9565ZM122.862 0.220581V3.42058H102.077L103.188 0.220581H122.862ZM52.166 0.220581C55.533 0.220581 58.5958 1.43338 60.8987 3.42058H26.546V0.220581H52.166ZM23.3355 0.220581V3.42058H0.861816V0.220581H23.3355Z" fill="currentColor"/>
</g>
<defs>
<clipPath id="clip0_50_26">
<rect width="122" height="48" fill="currentColor" transform="translate(0.861816 0.220581)"/>
</clipPath>
</defs>
</svg>
