<svg viewBox="0 0 543 198" fill="none" xmlns="http://www.w3.org/2000/svg">
<g filter="url(#filter0_d_16_22)">
<path d="M77.1015 116.637H103.987V143.958C99.7312 145.051 95.4155 145.896 91.0616 146.488C86.7088 147.103 82.3187 147.416 77.9227 147.425C73.7242 147.522 69.5451 146.825 65.6049 145.371C62.312 144.14 59.3333 142.193 56.884 139.67C54.5729 137.178 52.8203 134.22 51.7433 130.996C50.5485 127.445 49.9599 123.718 50.0024 119.972C49.9571 116.225 50.5457 112.498 51.7433 108.948C52.8342 105.695 54.6351 102.727 57.0153 100.257C59.5252 97.73 62.5581 95.784 65.9006 94.5558C69.9538 93.0991 74.241 92.4029 78.5468 92.5022C86.5506 92.5022 92.6328 93.8822 96.7935 96.6423C100.954 99.4024 103.084 103.849 103.182 109.983H83.8188C83.7997 109.269 83.626 108.569 83.3097 107.929C83.0593 107.406 82.6877 106.949 82.2257 106.598C81.7856 106.239 81.2685 105.986 80.7147 105.859C80.1028 105.704 79.4737 105.626 78.8424 105.629C77.4844 105.582 76.1441 105.948 74.9993 106.681C74.0205 107.352 73.2291 108.263 72.7 109.326C72.409 109.994 72.1995 110.694 72.0759 111.412C71.9116 112.288 71.7802 113.241 71.6817 114.271C71.5832 115.306 71.5175 116.407 71.4682 117.557C71.4189 118.707 71.3532 119.873 71.3532 120.974C71.3532 126.133 71.8131 129.533 72.7328 131.176C73.3229 132.205 74.1943 133.044 75.2446 133.594C76.295 134.144 77.4805 134.382 78.6618 134.281C79.6205 134.284 80.5773 134.196 81.5195 134.019C82.4272 133.86 83.3105 133.583 84.1473 133.197V126.905H77.1015V116.637ZM110.77 93.8658H141.647C144.171 93.8402 146.691 94.0714 149.169 94.5558C151.164 94.9256 153.067 95.6848 154.769 96.7902C156.278 97.8308 157.476 99.2618 158.235 100.93C159.076 102.89 159.48 105.009 159.417 107.141C159.507 109.901 158.726 112.62 157.183 114.912C155.689 117.064 152.995 118.608 149.087 119.577V119.725C151.21 119.817 153.265 120.506 155.015 121.713C156.48 122.895 157.5 124.541 157.906 126.379C158.231 127.647 158.462 128.938 158.596 130.24C158.76 131.719 158.941 133.296 159.138 134.971C159.335 136.614 159.598 138.438 159.926 140.327C160.288 142.277 160.748 144.207 161.306 146.11H141.072C140.748 145.03 140.479 143.933 140.267 142.825C140.037 141.56 139.807 140.245 139.594 138.931C139.38 137.617 139.183 136.269 139.002 134.922C138.822 133.575 138.69 132.146 138.46 131.094C138.353 130.025 137.849 129.034 137.048 128.318C135.962 127.663 134.697 127.37 133.435 127.48H131.02V146.061H110.77V93.8658ZM132.761 115.717C134.479 115.783 136.183 115.38 137.688 114.55C138.354 114.103 138.884 113.482 139.223 112.756C139.562 112.029 139.695 111.224 139.61 110.426C139.714 109.689 139.594 108.938 139.266 108.27C138.938 107.603 138.417 107.049 137.771 106.681C136.213 106.028 134.53 105.731 132.843 105.81H131.02V115.667L132.761 115.717ZM166.003 86.752H201.1C203.971 86.7259 206.837 86.9846 209.657 87.5241C211.921 87.9516 214.08 88.8166 216.013 90.0707C217.721 91.2376 219.083 92.8438 219.955 94.7201C220.923 96.9461 221.388 99.3582 221.318 101.785C221.411 104.922 220.514 108.008 218.756 110.607C217.113 113.055 213.993 114.813 209.559 115.914V116.078C211.97 116.179 214.304 116.959 216.292 118.329C217.958 119.673 219.116 121.545 219.577 123.635C219.946 125.077 220.209 126.543 220.365 128.022C220.562 129.665 220.759 131.489 220.973 133.411C221.186 135.333 221.499 137.354 221.876 139.49C222.254 141.625 222.796 143.81 223.519 146.061H200.525C200.098 144.806 199.741 143.528 199.458 142.233C199.173 140.787 198.91 139.309 198.67 137.797C198.423 136.302 198.21 134.774 198.013 133.246C197.816 131.719 197.618 130.322 197.405 129.057C197.265 127.834 196.681 126.705 195.763 125.886C194.524 125.157 193.089 124.829 191.657 124.95H188.996V146.061H166.003V86.752ZM190.967 111.478C192.929 111.558 194.876 111.104 196.6 110.163C197.359 109.66 197.963 108.955 198.346 108.129C198.728 107.302 198.875 106.386 198.768 105.481C198.889 104.642 198.755 103.786 198.383 103.024C198.011 102.262 197.419 101.63 196.682 101.21C194.93 100.485 193.042 100.149 191.148 100.224H188.996V111.478H190.967ZM228.659 79.5724H267.928C271.141 79.5344 274.35 79.8262 277.503 80.4432C280.043 80.9114 282.466 81.8773 284.631 83.2854C286.542 84.5913 288.063 86.3912 289.033 88.4935C290.121 90.9876 290.643 93.6922 290.56 96.4123C290.659 99.916 289.66 103.363 287.702 106.27C285.814 109.013 282.365 110.985 277.405 112.217V112.431C280.106 112.547 282.719 113.424 284.943 114.961C286.807 116.463 288.104 118.554 288.622 120.892C289.031 122.511 289.322 124.159 289.493 125.82C289.723 127.693 289.952 129.698 290.182 131.834C290.429 133.986 290.774 136.253 291.201 138.652C291.653 141.133 292.234 143.59 292.942 146.012H267.189C266.782 144.606 266.448 143.18 266.187 141.74C265.875 140.097 265.58 138.454 265.317 136.812C265.054 135.169 264.791 133.427 264.578 131.702C264.364 129.977 264.134 128.416 263.888 127.02C263.735 125.65 263.08 124.386 262.049 123.471C260.664 122.647 259.055 122.279 257.45 122.42H254.412V146.061H228.659V79.5724ZM256.58 107.256C258.775 107.346 260.954 106.841 262.886 105.793C263.73 105.22 264.403 104.428 264.831 103.502C265.259 102.576 265.427 101.551 265.317 100.536C265.317 98.0881 264.545 96.4945 262.985 95.7551C261.017 94.9527 258.901 94.5775 256.777 94.6544H254.379V107.256H256.58ZM295.224 109.293C295.168 103.967 295.978 98.6682 297.622 93.6029C299.103 89.0533 301.532 84.8701 304.75 81.3304C308.043 77.8074 312.099 75.0871 316.608 73.3787C327.359 69.6544 339.049 69.6544 349.8 73.3787C354.316 75.0828 358.379 77.8035 361.675 81.3304C364.893 84.8701 367.322 89.0533 368.803 93.6029C370.441 98.6692 371.246 103.968 371.184 109.293C371.246 114.612 370.441 119.906 368.803 124.966C367.326 129.522 364.896 133.712 361.675 137.255C358.378 140.777 354.315 143.492 349.8 145.19C339.053 148.937 327.355 148.937 316.608 145.19C312.101 143.488 308.044 140.773 304.75 137.255C301.529 133.712 299.099 129.522 297.622 124.966C295.978 119.907 295.168 114.613 295.224 109.293ZM325.362 109.293C325.309 112.715 325.517 116.137 325.986 119.528C326.239 121.565 326.792 123.552 327.628 125.426C328.101 126.601 328.966 127.576 330.075 128.186C331.064 128.638 332.142 128.863 333.229 128.843C334.299 128.849 335.357 128.625 336.333 128.186C337.461 127.585 338.344 126.609 338.829 125.426C339.65 123.547 340.203 121.561 340.472 119.528C340.934 116.137 341.137 112.715 341.079 109.293C341.129 105.938 340.943 102.583 340.521 99.2546C340.257 97.1991 339.705 95.1913 338.879 93.2908C338.394 92.0867 337.513 91.0841 336.382 90.4485C335.384 89.9666 334.288 89.7194 333.18 89.7257C332.07 89.7152 330.974 89.9627 329.977 90.4485C328.876 91.0984 328.026 92.0994 327.563 93.2908C326.718 95.1962 326.165 97.2176 325.92 99.2874C325.499 102.605 325.312 105.949 325.362 109.293ZM369.542 65.3941H398.185L405 116.127H405.23L412.637 65.3941H445.698L453.187 116.127H453.401L461.974 50H492.112L471.385 146.061H436.764L429.291 93.7672H429.061L421.572 146.061H386.951L369.542 65.3941Z" fill="url(#paint0_linear_16_22)"/>
</g>
<defs>
<filter id="filter0_d_16_22" x="0" y="0" width="542.112" height="198" filterUnits="userSpaceOnUse" color-interpolation-filters="sRGB">
<feFlood flood-opacity="0" result="BackgroundImageFix"/>
<feColorMatrix in="SourceAlpha" type="matrix" values="0 0 0 0 0 0 0 0 0 0 0 0 0 0 0 0 0 0 127 0" result="hardAlpha"/>
<feOffset/>
<feGaussianBlur stdDeviation="25"/>
<feComposite in2="hardAlpha" operator="out"/>
<feColorMatrix type="matrix" values="0 0 0 0 0 0 0 0 0 0 0 0 0 0 0 0 0 0 0.25 0"/>
<feBlend mode="normal" in2="BackgroundImageFix" result="effect1_dropShadow_16_22"/>
<feBlend mode="normal" in="SourceGraphic" in2="effect1_dropShadow_16_22" result="shape"/>
</filter>
<linearGradient id="paint0_linear_16_22" x1="-62.5888" y1="158.783" x2="509.553" y2="56.9774" gradientUnits="userSpaceOnUse">
<stop stop-color="#F2D330"/>
<stop offset="0.0001" stop-color="#F2D330"/>
<stop offset="1" stop-color="#F5A700"/>
</linearGradient>
</defs>
</svg>
