<svg width="443" height="98" viewBox="0 0 443 98" fill="none" xmlns="http://www.w3.org/2000/svg">
<path d="M27.1015 66.6366H53.9871V93.9582C49.7312 95.0512 45.4155 95.896 41.0616 96.4883C36.7088 97.103 32.3187 97.4159 27.9227 97.4248C23.7242 97.5216 19.5451 96.8249 15.6049 95.3712C12.312 94.14 9.33331 92.1928 6.88396 89.6702C4.57287 87.1776 2.82028 84.2202 1.74334 80.9957C0.548461 77.4448 -0.0400731 73.7181 0.00243282 69.9717C-0.0429038 66.2251 0.545705 62.4979 1.74334 58.9478C2.8342 55.6953 4.63508 52.7265 7.01535 50.2567C9.52521 47.73 12.5581 45.784 15.9006 44.5558C19.9538 43.0991 24.241 42.4029 28.5468 42.5022C36.5506 42.5022 42.6328 43.8822 46.7935 46.6423C50.9542 49.4024 53.0838 53.8492 53.1823 59.9828H33.8188C33.7997 59.2694 33.626 58.5687 33.3097 57.9291C33.0593 57.4056 32.6877 56.9494 32.2257 56.5984C31.7856 56.239 31.2685 55.986 30.7147 55.8591C30.1028 55.7038 29.4737 55.6265 28.8424 55.6291C27.4844 55.5817 26.1441 55.9484 24.9993 56.6805C24.0205 57.3523 23.2291 58.2627 22.7 59.3256C22.409 59.9936 22.1995 60.6941 22.0759 61.4121C21.9116 62.2883 21.7802 63.2412 21.6817 64.2708C21.5832 65.3058 21.5175 66.4066 21.4682 67.5566C21.4189 68.7067 21.3532 69.8731 21.3532 70.9739C21.3532 76.1326 21.8131 79.5335 22.7328 81.1764C23.3229 82.205 24.1943 83.0437 25.2446 83.5938C26.295 84.1439 27.4805 84.3825 28.6618 84.2815C29.6205 84.2837 30.5773 84.1957 31.5195 84.0186C32.4272 83.8596 33.3105 83.5835 34.1473 83.1972V76.9048H27.1015V66.6366ZM60.7701 43.8658H91.6466C94.1708 43.8402 96.6911 44.0714 99.1686 44.5558C101.164 44.9256 103.067 45.6848 104.769 46.7902C106.278 47.8308 107.476 49.2618 108.235 50.9303C109.076 52.8895 109.48 55.009 109.417 57.1405C109.507 59.9013 108.726 62.6203 107.183 64.9115C105.689 67.0637 102.995 68.6081 99.0865 69.5774V69.7253C101.21 69.8168 103.265 70.5058 105.015 71.7132C106.48 72.8954 107.5 74.5407 107.906 76.3791C108.231 77.6472 108.462 78.9377 108.596 80.2399C108.76 81.7185 108.941 83.2957 109.138 84.9715C109.335 86.6144 109.598 88.4381 109.926 90.3274C110.288 92.2772 110.748 94.2073 111.306 96.1105H91.0718C90.7476 95.0296 90.479 93.9329 90.267 92.8246C90.0371 91.5596 89.8071 90.2453 89.5936 88.9309C89.3801 87.6166 89.183 86.2694 89.0024 84.9222C88.8217 83.575 88.6903 82.1457 88.4604 81.0942C88.3527 80.0248 87.8488 79.0343 87.048 78.3177C85.9624 77.6633 84.6974 77.37 83.4347 77.4798H81.0205V96.0612H60.7701V43.8658ZM82.7614 65.7166C84.4792 65.7828 86.1826 65.3795 87.6885 64.5501C88.3538 64.1029 88.8843 63.4825 89.223 62.7557C89.5616 62.029 89.6955 61.2236 89.6101 60.4264C89.714 59.6895 89.5942 58.9384 89.2662 58.2705C88.9382 57.6025 88.4172 57.0486 87.7706 56.6805C86.2131 56.0283 84.5301 55.7309 82.8435 55.8098H81.0205V65.6673L82.7614 65.7166ZM116.003 36.752H151.1C153.971 36.7259 156.837 36.9846 159.657 37.5242C161.921 37.9516 164.08 38.8166 166.013 40.0707C167.721 41.2376 169.083 42.8438 169.955 44.7201C170.923 46.9461 171.388 49.3582 171.318 51.7846C171.411 54.9216 170.514 58.0082 168.756 60.6071C167.113 63.055 163.993 64.813 159.559 65.9137V66.078C161.97 66.1787 164.304 66.9589 166.292 68.3288C167.958 69.6734 169.116 71.5448 169.577 73.6354C169.946 75.0765 170.209 76.5426 170.365 78.022C170.562 79.6649 170.759 81.4885 170.973 83.4107C171.187 85.3329 171.499 87.3537 171.876 89.4895C172.254 91.6253 172.796 93.8104 173.519 96.0612H150.526C150.098 94.8063 149.742 93.5283 149.458 92.2332C149.173 90.7874 148.91 89.3088 148.67 87.7973C148.423 86.3023 148.21 84.7744 148.013 83.2464C147.816 81.7185 147.619 80.3221 147.405 79.057C147.265 77.8342 146.681 76.7055 145.763 75.8862C144.524 75.1566 143.089 74.8294 141.657 74.9497H138.996V96.0612H116.003V36.752ZM140.967 61.4778C142.929 61.5583 144.876 61.104 146.6 60.1635C147.359 59.6597 147.963 58.9554 148.346 58.1288C148.728 57.3023 148.875 56.3858 148.768 55.4812C148.889 54.642 148.755 53.7857 148.383 53.0239C148.011 52.262 147.419 51.6298 146.682 51.2096C144.93 50.4854 143.042 50.1492 141.148 50.2239H138.996V61.4778H140.967ZM178.659 29.5725H217.928C221.141 29.5344 224.35 29.8262 227.503 30.4432C230.043 30.9114 232.466 31.8773 234.631 33.2854C236.542 34.5913 238.063 36.3912 239.033 38.4935C240.121 40.9876 240.643 43.6922 240.56 46.4123C240.659 49.916 239.66 53.3629 237.702 56.2698C235.814 59.0135 232.365 60.985 227.405 62.2171V62.4307C230.106 62.5472 232.719 63.4242 234.943 64.9608C236.807 66.4628 238.104 68.5544 238.622 70.8917C239.031 72.5114 239.322 74.1587 239.493 75.8205C239.723 77.6934 239.952 79.6978 240.182 81.8335C240.429 83.9858 240.774 86.253 241.201 88.6516C241.653 91.1335 242.235 93.5902 242.942 96.0119H217.189C216.782 94.6062 216.448 93.1805 216.187 91.7403C215.875 90.0974 215.58 88.4545 215.317 86.8116C215.054 85.1687 214.791 83.4272 214.578 81.7021C214.364 79.977 214.134 78.4163 213.888 77.0198C213.735 75.65 213.08 74.3856 212.049 73.4711C210.664 72.6471 209.055 72.2793 207.45 72.4196H204.412V96.0612H178.659V29.5725ZM206.58 57.2555C208.775 57.3459 210.954 56.8406 212.886 55.7934C213.73 55.2205 214.403 54.4284 214.831 53.5022C215.259 52.5759 215.427 51.5505 215.317 50.536C215.317 48.0881 214.545 46.4945 212.985 45.7552C211.017 44.9527 208.901 44.5776 206.777 44.6544H204.379V57.2555H206.58ZM245.224 59.2928C245.168 53.9674 245.978 48.6682 247.622 43.6029C249.103 39.0533 251.532 34.8701 254.75 31.3304C258.043 27.8074 262.1 25.0871 266.608 23.3787C277.359 19.6544 289.049 19.6544 299.8 23.3787C304.316 25.0828 308.379 27.8035 311.675 31.3304C314.893 34.8701 317.322 39.0533 318.803 43.6029C320.441 48.6692 321.246 53.9683 321.184 59.2928C321.246 64.6119 320.441 69.9056 318.803 74.9662C317.326 79.5225 314.896 83.7119 311.675 87.2552C308.378 90.7769 304.315 93.4921 299.8 95.1904C289.053 98.9365 277.355 98.9365 266.608 95.1904C262.101 93.4878 258.044 90.773 254.75 87.2552C251.529 83.7119 249.099 79.5225 247.622 74.9662C245.978 69.9065 245.168 64.6128 245.224 59.2928ZM275.362 59.2928C275.309 62.7155 275.517 66.1372 275.986 69.5281C276.239 71.5646 276.792 73.5523 277.628 75.4262C278.101 76.6012 278.966 77.5763 280.076 78.1863C281.064 78.6382 282.142 78.8628 283.229 78.8434C284.299 78.8492 285.357 78.6251 286.333 78.1863C287.461 77.5853 288.344 76.6091 288.829 75.4262C289.65 73.5469 290.203 71.5614 290.472 69.5281C290.934 66.1367 291.137 62.715 291.079 59.2928C291.129 55.9377 290.943 52.5833 290.521 49.2546C290.258 47.1991 289.705 45.1913 288.879 43.2908C288.394 42.0867 287.514 41.0841 286.382 40.4485C285.384 39.9666 284.288 39.7194 283.18 39.7257C282.071 39.7153 280.974 39.9627 279.977 40.4485C278.876 41.0984 278.026 42.0994 277.563 43.2908C276.718 45.1962 276.165 47.2176 275.92 49.2874C275.499 52.6052 275.312 55.9487 275.362 59.2928ZM319.542 15.3941H348.185L355 66.1273H355.23L362.637 15.3941H395.698L403.187 66.1273H403.401L411.974 0H442.112L421.385 96.0612H386.764L379.291 43.7672H379.061L371.572 96.0612H336.951L319.542 15.3941Z" fill="url(#paint0_linear_5_6)"/>
<path d="M53.9871 66.6366H27.1015V76.9048H34.1473V83.1972C33.3105 83.5835 32.4272 83.8596 31.5195 84.0186C30.5773 84.1957 29.6205 84.2837 28.6618 84.2815C27.4805 84.3825 26.295 84.1439 25.2446 83.5938C24.1943 83.0437 23.3229 82.205 22.7328 81.1764C21.8131 79.5335 21.3532 76.1326 21.3532 70.9739C21.3532 69.8731 21.4189 68.7067 21.4682 67.5566C21.5175 66.4066 21.5832 65.3058 21.6817 64.2708C21.7802 63.2412 21.9116 62.2883 22.0759 61.4121C22.1995 60.6941 22.409 59.9936 22.7 59.3256C23.2291 58.2627 24.0205 57.3523 24.9993 56.6805C26.1441 55.9484 27.4844 55.5817 28.8424 55.6291C29.4737 55.6265 30.1028 55.7038 30.7147 55.8591C31.2685 55.986 31.7856 56.239 32.2257 56.5984C32.6877 56.9494 33.0593 57.4056 33.3097 57.9291C33.626 58.5687 33.7997 59.2694 33.8188 59.9828H53.1823C53.0838 53.8492 50.9542 49.4024 46.7935 46.6423C42.6328 43.8822 36.5506 42.5022 28.5468 42.5022C24.241 42.4029 19.9538 43.0991 15.9006 44.5558C12.5581 45.784 9.52521 47.73 7.01535 50.2567C4.63508 52.7265 2.8342 55.6953 1.74334 58.9478C0.545705 62.4979 -0.0429038 66.2251 0.00243282 69.9717C-0.0400731 73.7181 0.548461 77.4448 1.74334 80.9957C2.82028 84.2202 4.57287 87.1776 6.88396 89.6702C9.33331 92.1928 12.312 94.14 15.6049 95.3712C19.5451 96.8249 23.7242 97.5216 27.9227 97.4248C32.3187 97.4159 36.7088 97.103 41.0616 96.4883C45.4155 95.896 49.7312 95.0512 53.9871 93.9582V66.6366Z" fill="url(#paint1_linear_5_6)"/>
<path d="M53.9871 66.6366H27.1015V76.9048H34.1473V83.1972C33.3105 83.5835 32.4272 83.8596 31.5195 84.0186C30.5773 84.1957 29.6205 84.2837 28.6618 84.2815C27.4805 84.3825 26.295 84.1439 25.2446 83.5938C24.1943 83.0437 23.3229 82.205 22.7328 81.1764C21.8131 79.5335 21.3532 76.1326 21.3532 70.9739C21.3532 69.8731 21.4189 68.7067 21.4682 67.5566C21.5175 66.4066 21.5832 65.3058 21.6817 64.2708C21.7802 63.2412 21.9116 62.2883 22.0759 61.4121C22.1995 60.6941 22.409 59.9936 22.7 59.3256C23.2291 58.2627 24.0205 57.3523 24.9993 56.6805C26.1441 55.9484 27.4844 55.5817 28.8424 55.6291C29.4737 55.6265 30.1028 55.7038 30.7147 55.8591C31.2685 55.986 31.7856 56.239 32.2257 56.5984C32.6877 56.9494 33.0593 57.4056 33.3097 57.9291C33.626 58.5687 33.7997 59.2694 33.8188 59.9828H53.1823C53.0838 53.8492 50.9542 49.4024 46.7935 46.6423C42.6328 43.8822 36.5506 42.5022 28.5468 42.5022C24.241 42.4029 19.9538 43.0991 15.9006 44.5558C12.5581 45.784 9.52521 47.73 7.01535 50.2567C4.63508 52.7265 2.8342 55.6953 1.74334 58.9478C0.545705 62.4979 -0.0429038 66.2251 0.00243282 69.9717C-0.0400731 73.7181 0.548461 77.4448 1.74334 80.9957C2.82028 84.2202 4.57287 87.1776 6.88396 89.6702C9.33331 92.1928 12.312 94.14 15.6049 95.3712C19.5451 96.8249 23.7242 97.5216 27.9227 97.4248C32.3187 97.4159 36.7088 97.103 41.0616 96.4883C45.4155 95.896 49.7312 95.0512 53.9871 93.9582V66.6366Z" fill="url(#paint2_linear_5_6)"/>
<defs>
<linearGradient id="paint0_linear_5_6" x1="-112.589" y1="108.783" x2="459.553" y2="6.97735" gradientUnits="userSpaceOnUse">
<stop stop-color="#F2D330"/>
<stop offset="0.0001" stop-color="#F2D330"/>
<stop offset="1" stop-color="#F5A700"/>
</linearGradient>
<linearGradient id="paint1_linear_5_6" x1="-112.589" y1="108.783" x2="459.553" y2="6.97735" gradientUnits="userSpaceOnUse">
<stop stop-color="#F2D330"/>
<stop offset="0.0001" stop-color="#F2D330"/>
<stop offset="1" stop-color="#F5A700"/>
</linearGradient>
<linearGradient id="paint2_linear_5_6" x1="-112.589" y1="108.783" x2="459.553" y2="6.97735" gradientUnits="userSpaceOnUse">
<stop stop-color="#F2D330"/>
<stop offset="0.0001" stop-color="#F2D330"/>
<stop offset="1" stop-color="#F5A700"/>
</linearGradient>
</defs>
</svg>
