<svg width="33" height="33" viewBox="0 0 33 33" fill="none" xmlns="http://www.w3.org/2000/svg">
<path d="M9.67912 22.3853L3.01245 18.3853L9.67912 14.3853L16.3458 18.3853V25.7186L9.67912 29.7186V22.3853Z" stroke="white" stroke-width="2.66667" stroke-linecap="round" stroke-linejoin="round"/>
<path d="M3.01245 18.3852V25.7185L9.67912 29.7185M9.67912 22.4452L16.3458 18.4052M23.0125 22.3852L16.3458 18.3852M23.0125 22.3852V29.7185M23.0125 22.3852L29.6791 18.3852M16.3458 18.3852L23.0125 14.3852M16.3458 18.3852V11.0519M23.0125 14.3852L29.6791 18.3852M23.0125 14.3852V7.05188M29.6791 18.3852V25.7185L23.0125 29.7185M23.0125 29.7185L16.3458 25.7185M16.3458 11.0519L9.67912 7.05188L16.3458 3.05188L23.0125 7.05188M16.3458 11.0519L23.0125 7.05188M9.67912 7.09188V14.3652" stroke="white" stroke-width="2.66667" stroke-linecap="round" stroke-linejoin="round"/>
</svg>
