<svg width="32" height="33" viewBox="0 0 32 33" fill="none" xmlns="http://www.w3.org/2000/svg">
<path d="M20.7867 19.5453C21.0643 20.72 21.0725 21.9424 20.8106 23.1208C20.5488 24.2991 20.0236 25.403 19.2745 26.3496C18.5255 27.2962 17.5719 28.061 16.4853 28.5867C15.3986 29.1124 14.2071 29.3854 13 29.3853V22.9853M20.7867 19.5453C23.3332 17.6903 25.4048 15.2593 26.8322 12.4507C28.2597 9.64214 29.0025 6.53575 29 3.38526C25.8497 3.38298 22.7436 4.12591 19.9353 5.55335C17.127 6.98079 14.6962 9.05227 12.8413 11.5986M20.7867 19.5453C18.4692 21.2403 15.8138 22.4138 13 22.9853M13 22.9853C12.8621 23.0133 12.7238 23.04 12.5853 23.0653C11.3757 22.1061 10.2805 21.0109 9.32133 19.8013C9.34652 19.6623 9.37186 19.5236 9.4 19.3853M12.8413 11.5986C11.6665 11.3207 10.444 11.3124 9.26542 11.5741C8.08688 11.8359 6.98286 12.361 6.0361 13.1101C5.08934 13.8592 4.3244 14.8128 3.7986 15.8996C3.2728 16.9863 2.99978 18.178 3 19.3853H9.4M12.8413 11.5986C11.1465 13.9157 9.97167 16.572 9.4 19.3853M6.41467 22.5719C5.53757 23.2241 4.85564 24.1039 4.4427 25.1159C4.02976 26.1279 3.90157 27.2336 4.072 28.3133C5.15177 28.4835 6.25755 28.3551 7.26957 27.942C8.28159 27.5288 9.16127 26.8466 9.81333 25.9693M22 12.3853C22 12.9157 21.7893 13.4244 21.4142 13.7995C21.0391 14.1745 20.5304 14.3853 20 14.3853C19.4696 14.3853 18.9609 14.1745 18.5858 13.7995C18.2107 13.4244 18 12.9157 18 12.3853C18 11.8548 18.2107 11.3461 18.5858 10.971C18.9609 10.596 19.4696 10.3853 20 10.3853C20.5304 10.3853 21.0391 10.596 21.4142 10.971C21.7893 11.3461 22 11.8548 22 12.3853Z" stroke="white" stroke-width="2" stroke-linecap="round" stroke-linejoin="round"/>
</svg>
