<svg width="186" height="31" viewBox="0 0 186 31" fill="none" xmlns="http://www.w3.org/2000/svg">
<path d="M12.3601 30.2206C9.44987 30.2206 7.02467 29.5739 5.05598 28.3086C3.05876 27.0153 1.66071 25.3002 0.861816 23.0791L5.7978 20.2394C6.93908 23.1916 9.19309 24.6535 12.5313 24.6535C14.1576 24.6535 15.3274 24.3725 16.0978 23.782C16.8396 23.1916 17.239 22.4886 17.239 21.5888C17.239 20.5767 16.7825 19.7894 15.8695 19.2271C14.9565 18.6648 13.3017 18.0462 10.9335 17.3996C9.59252 17.006 8.47979 16.6404 7.56678 16.2468C6.65375 15.8532 5.76927 15.3471 4.85627 14.7004C3.94324 14.0538 3.25849 13.2384 2.77345 12.2543C2.31694 11.2703 2.06015 10.1175 2.06015 8.79602C2.06015 6.18122 3.00171 4.10061 4.88479 2.55422C6.76788 1.00784 9.05043 0.220581 11.7039 0.220581C14.072 0.220581 16.1548 0.782905 17.9523 1.93566C19.7499 3.06032 21.1478 4.66294 22.1466 6.68731L17.2961 9.44269C16.1263 6.96848 14.2432 5.73136 11.7039 5.73136C10.5056 5.73136 9.564 6.01251 8.87925 6.54674C8.19448 7.08094 7.85209 7.78384 7.85209 8.62733C7.85209 9.52705 8.223 10.2581 8.99336 10.8204C9.76373 11.3827 11.2188 12.0013 13.4158 12.6761C14.3003 12.9572 14.985 13.154 15.4415 13.3227C15.8981 13.4914 16.5257 13.6883 17.3246 13.9975C18.1235 14.3068 18.7227 14.6161 19.1792 14.8691C19.6072 15.1503 20.0922 15.5158 20.6628 15.9938C21.2335 16.4717 21.6329 16.9497 21.9468 17.4277C22.2607 17.9057 22.4889 18.5241 22.6887 19.2271C22.8883 19.93 23.0024 20.6892 23.0024 21.5046C23.0024 24.1756 22.0325 26.2844 20.0636 27.8588C18.0665 29.4333 15.4986 30.2206 12.3601 30.2206Z" fill="white"/>
<path d="M43.4594 0.810867H49.2229V29.6581H44.8289L32.275 12.0292V29.6581H26.5402V0.810867H30.9339L43.4881 18.3835V0.810867H43.4594Z" fill="white"/>
<path d="M83.4043 14.1381V16.3593C83.4043 20.4923 82.0635 23.8101 79.3813 26.3686C76.6994 28.9272 73.2471 30.1925 69.0243 30.1925C64.5164 30.1925 60.7787 28.7303 57.7828 25.8344C54.8156 22.9385 53.332 19.3958 53.332 15.2346C53.332 11.0453 54.8156 7.47456 57.7544 4.55048C60.6932 1.68263 64.3452 0.220581 68.682 0.220581C71.421 0.220581 73.9033 0.839138 76.1573 2.04814C78.4114 3.28525 80.1803 4.88787 81.4357 6.94036L76.4996 9.75197C75.8149 8.5711 74.7593 7.61515 73.3326 6.856C71.9346 6.12499 70.3653 5.73136 68.6249 5.73136C65.8288 5.73136 63.5463 6.63107 61.7488 8.43051C59.9513 10.2299 59.0382 12.5074 59.0382 15.2627C59.0382 17.99 59.9513 20.2394 61.7772 22.0107C63.6318 23.782 66.0571 24.6535 69.0529 24.6535C71.2784 24.6535 73.133 24.1756 74.588 23.1916C76.0431 22.2074 77.0417 20.8861 77.5838 19.1708H68.7106V14.1381H83.4043Z" fill="white"/>
<path d="M98.212 30.2204C94.9595 30.2204 92.2774 29.3208 90.1946 27.4932C88.1118 25.6938 87.0562 23.2476 87.0562 20.2111V0.810867H92.7911V19.7613C92.7911 21.2795 93.2191 22.4603 94.1035 23.332C94.988 24.2035 96.3575 24.6533 98.212 24.6533C100.067 24.6533 101.465 24.2035 102.321 23.332C103.205 22.4603 103.633 21.2513 103.633 19.7613V0.810867H109.396V20.2111C109.396 23.2476 108.341 25.6938 106.258 27.4932C104.175 29.3208 101.493 30.2204 98.212 30.2204Z" fill="white"/>
<path d="M131.509 24.2035V29.63H114.561V0.810867H120.324V24.2035H131.509Z" fill="white"/>
<path d="M154.876 29.63L153.021 24.4285H141.01L139.241 29.63H133.021L143.235 0.810867H150.397L160.725 29.6581H154.876V29.63ZM142.864 19.1427H151.11L146.887 7.36195L142.864 19.1427Z" fill="white"/>
<path d="M179.613 29.63L173.707 19.6206H169.342V29.63H163.578V0.810867H175.277C177.987 0.810867 180.27 1.73869 182.181 3.62249C184.093 5.47816 185.034 7.75557 185.034 10.3704C185.034 12.1698 184.521 13.8005 183.494 15.347C182.467 16.8652 181.097 18.018 179.385 18.7771L185.862 29.6581H179.613V29.63ZM169.313 14.644H175.248C176.332 14.644 177.274 14.2223 178.044 13.3788C178.815 12.5353 179.214 11.5231 179.214 10.3423C179.214 9.16139 178.815 8.14921 178.044 7.33382C177.274 6.51846 176.332 6.09672 175.248 6.09672H169.313V14.644Z" fill="white"/>
</svg>
