<svg width="32" height="32" viewBox="0 0 32 32" fill="none" xmlns="http://www.w3.org/2000/svg">
  <path
    d="M29.9466 7.99992C28.9199 8.46659 27.8132 8.77325 26.6666 8.91992C27.8399 8.21325 28.7466 7.09325 29.1732 5.74659C28.0666 6.41325 26.8399 6.87992 25.5466 7.14659C24.4932 5.99992 23.0132 5.33325 21.3332 5.33325C18.1999 5.33325 15.6399 7.89325 15.6399 11.0533C15.6399 11.5066 15.6932 11.9466 15.7866 12.3599C11.0399 12.1199 6.81322 9.83992 3.99989 6.38659C3.50656 7.22659 3.22656 8.21325 3.22656 9.25325C3.22656 11.2399 4.22656 12.9999 5.77322 13.9999C4.82656 13.9999 3.94656 13.7333 3.17322 13.3333V13.3733C3.17322 16.1466 5.14656 18.4666 7.75989 18.9866C6.92086 19.2162 6.04002 19.2481 5.18656 19.0799C5.5487 20.2166 6.25794 21.2111 7.21458 21.9238C8.17122 22.6365 9.32715 23.0315 10.5199 23.0533C8.49806 24.6538 5.99188 25.519 3.41322 25.5066C2.95989 25.5066 2.50656 25.4799 2.05322 25.4266C4.58656 27.0533 7.59989 27.9999 10.8266 27.9999C21.3332 27.9999 27.1066 19.2799 27.1066 11.7199C27.1066 11.4666 27.1066 11.2266 27.0932 10.9733C28.2132 10.1733 29.1732 9.15992 29.9466 7.99992Z"
    fill="currentColor" />
</svg>